<svg id="Layer_1" data-name="Layer 1" xmlns="http://www.w3.org/2000/svg" viewBox="0 0 101.62 114.31"><defs><style>.cls-1{fill:#311632;}.cls-2{fill:#43403e;}.cls-3{fill:#dcd4d0;}</style></defs><path class="cls-1" d="M166.37,252.65s-12.44,17.12-15.71,17.12a2.65,2.65,0,0,1-2.65-2.65c0-1.47,5.92-18.77,5.92-18.77S166.37,251.19,166.37,252.65Z" transform="translate(-127.19 -155.46)"/><path class="cls-1" d="M189.63,252.65s12.44,17.12,15.71,17.12a2.65,2.65,0,0,0,2.65-2.65c0-1.47-5.92-18.77-5.92-18.77S189.63,251.19,189.63,252.65Z" transform="translate(-127.19 -155.46)"/><path class="cls-2" d="M227.34,206.27A49.34,49.34,0,1,1,178,156.93,49.34,49.34,0,0,1,227.34,206.27Z" transform="translate(-127.19 -155.46)"/><path class="cls-3" d="M223,206.27a45,45,0,1,1-45-45A45,45,0,0,1,223,206.27Z" transform="translate(-127.19 -155.46)"/><path class="cls-1" d="M170.57,156a2.65,2.65,0,0,0,2.64,3.83h.09a46.8,46.8,0,0,1,9.9,0,2.62,2.62,0,0,0,.56,0,2.66,2.66,0,0,0,2.12-3.8,51.2,51.2,0,0,0-7.88-.61A50.67,50.67,0,0,0,170.57,156Z" transform="translate(-127.19 -155.46)"/><path class="cls-1" d="M207.44,170.05a46.59,46.59,0,0,1,7,7.08,2.65,2.65,0,0,0,4.58-.79,51.15,51.15,0,0,0-10.77-10.87,2.55,2.55,0,0,0-1.22.84A2.66,2.66,0,0,0,207.44,170.05Z" transform="translate(-127.19 -155.46)"/><path class="cls-1" d="M228.26,198.81a2.73,2.73,0,0,0-1.45-.27,2.66,2.66,0,0,0-2.37,2.92v.11a46.88,46.88,0,0,1,0,10,2.65,2.65,0,0,0,2.34,2.94,2.72,2.72,0,0,0,.57,0,2.76,2.76,0,0,0,.88-.25,52.17,52.17,0,0,0,.62-8A51.08,51.08,0,0,0,228.26,198.81Z" transform="translate(-127.19 -155.46)"/><path class="cls-1" d="M129.18,213.92a2.69,2.69,0,0,0,2.38-2.94,47.08,47.08,0,0,1,0-9.93,2.65,2.65,0,0,0-2.35-2.93,2.6,2.6,0,0,0-1.44.25,50.32,50.32,0,0,0-.62,7.9,51.42,51.42,0,0,0,.54,7.39A2.73,2.73,0,0,0,129.18,213.92Z" transform="translate(-127.19 -155.46)"/><path class="cls-1" d="M217.92,235.4a2.65,2.65,0,0,0-3.74.38,47.6,47.6,0,0,1-7.1,7,2.65,2.65,0,0,0,.78,4.58,51,51,0,0,0,10.89-10.76A2.65,2.65,0,0,0,217.92,235.4Z" transform="translate(-127.19 -155.46)"/><path class="cls-1" d="M185.63,255.1a2.67,2.67,0,0,0-2.92-2.38,46.7,46.7,0,0,1-10-.05,2.64,2.64,0,0,0-2.68,3.79,51.19,51.19,0,0,0,15.29.09A2.57,2.57,0,0,0,185.63,255.1Z" transform="translate(-127.19 -155.46)"/><path class="cls-1" d="M138.05,177.2a2.7,2.7,0,0,0,1.95.58,2.64,2.64,0,0,0,1.79-1,47.13,47.13,0,0,1,7.09-7,2.65,2.65,0,0,0,.41-3.73,2.58,2.58,0,0,0-1.19-.84A51,51,0,0,0,137.21,176,2.77,2.77,0,0,0,138.05,177.2Z" transform="translate(-127.19 -155.46)"/><path class="cls-1" d="M148.9,246.21a2.65,2.65,0,0,0-.38-3.74,47.59,47.59,0,0,1-7-7.09,2.64,2.64,0,0,0-3.73-.42,2.56,2.56,0,0,0-.84,1.2,51.43,51.43,0,0,0,10.76,10.89A2.75,2.75,0,0,0,148.9,246.21Z" transform="translate(-127.19 -155.46)"/></svg>