<svg id="Layer_1" data-name="Layer 1" xmlns="http://www.w3.org/2000/svg" viewBox="0 0 340 270"><defs><style>.cls-1{fill:#2c2227;}.cls-2{fill:#805d28;}.cls-3{fill:#f8ae3c;}.cls-4{fill:#dcd4d0;}</style></defs><path class="cls-1" d="M270.28,140.63c1.36,5.76-12,13.84-29.85,18.05s-33.42,3-34.78-2.8,12-13.85,29.85-18.06S268.92,134.87,270.28,140.63Z"/><path class="cls-2" d="M273,167.34c.92,3.91-11.27,10.13-27.23,13.89s-29.66,3.65-30.58-.25,11.27-10.13,27.24-13.9S272.06,163.43,273,167.34Z"/><path class="cls-3" d="M236.39,141.58c-16,3.77-28.16,10-27.24,13.9l5.94,25.17h0c-.18-3.92,11.77-9.9,27.28-13.56s28.86-3.65,30.46-.07h0L267,141.84C266,137.93,252.35,137.81,236.39,141.58Z"/><path class="cls-4" d="M239.23,147.67a1.37,1.37,0,0,1-1,1.65h0a1.38,1.38,0,0,1-1.64-1l-1.69-7.16a1.36,1.36,0,0,1,1-1.64h0a1.36,1.36,0,0,1,1.64,1Z"/><path class="cls-4" d="M222.94,153.06a1.36,1.36,0,0,1-1,1.64h0a1.36,1.36,0,0,1-1.64-1l-1.69-7.16a1.35,1.35,0,0,1,1-1.64h0a1.37,1.37,0,0,1,1.65,1Z"/><path class="cls-4" d="M256.22,145.21a1.36,1.36,0,0,1-1,1.64h0a1.35,1.35,0,0,1-1.64-1l-1.69-7.16a1.37,1.37,0,0,1,1-1.65h0a1.38,1.38,0,0,1,1.64,1Z"/><path class="cls-4" d="M211.81,160.77a1.37,1.37,0,0,1-1,1.65h0a1.37,1.37,0,0,1-1.64-1l-1.69-7.16a1.36,1.36,0,0,1,1-1.64h0a1.37,1.37,0,0,1,1.64,1Z"/><path class="cls-4" d="M269.62,147.14a1.36,1.36,0,0,1-1,1.64h0a1.36,1.36,0,0,1-1.64-1l-1.69-7.16a1.36,1.36,0,0,1,1-1.64h0a1.36,1.36,0,0,1,1.64,1Z"/><path class="cls-4" d="M244.25,169a1.37,1.37,0,0,1-1,1.64h0a1.38,1.38,0,0,1-1.65-1l-1.69-7.17a1.37,1.37,0,0,1,1-1.64h0a1.36,1.36,0,0,1,1.64,1Z"/><path class="cls-4" d="M228,174.35a1.37,1.37,0,0,1-1,1.64h0a1.36,1.36,0,0,1-1.64-1l-1.69-7.16a1.36,1.36,0,0,1,1-1.64h0a1.36,1.36,0,0,1,1.64,1Z"/><path class="cls-4" d="M261.24,166.5a1.37,1.37,0,0,1-1,1.64h0a1.36,1.36,0,0,1-1.64-1L256.89,160a1.36,1.36,0,0,1,1-1.64h0a1.36,1.36,0,0,1,1.64,1Z"/><path class="cls-4" d="M216.83,182.06a1.37,1.37,0,0,1-1,1.64h0a1.37,1.37,0,0,1-1.65-1l-1.69-7.17a1.37,1.37,0,0,1,1-1.64h0a1.36,1.36,0,0,1,1.64,1Z"/><path class="cls-4" d="M274.64,168.42a1.36,1.36,0,0,1-1,1.64h0a1.36,1.36,0,0,1-1.64-1l-1.69-7.16a1.37,1.37,0,0,1,1-1.65h0a1.36,1.36,0,0,1,1.64,1Z"/></svg>