<svg id="Layer_1" data-name="Layer 1" xmlns="http://www.w3.org/2000/svg" viewBox="0 0 93.43 27.12"><defs><style>.cls-1{fill:#e3a037;}.cls-2{fill:#f8ae3c;}</style></defs><path class="cls-1" d="M94,48.06c.06,4.38-20.82,8.18-46.62,8.49S.62,53.55.57,49.17,21.39,41,47.19,40.68,94,43.67,94,48.06Z" transform="translate(-0.57 -29.45)"/><path class="cls-2" d="M55.82,32.45a18.83,18.83,0,0,0-8.53-3,18.8,18.8,0,0,0-8.53,3,17.09,17.09,0,0,1-8.13,2.89H63.94A17.07,17.07,0,0,1,55.82,32.45Z" transform="translate(-0.57 -29.45)"/><path class="cls-2" d="M94,41.35c.06,4.38-20.82,8.19-46.62,8.5S.62,46.85.57,42.47,21.39,34.28,47.19,34,94,37,94,41.35Z" transform="translate(-0.57 -29.45)"/></svg>