<svg id="Layer_1" data-name="Layer 1" xmlns="http://www.w3.org/2000/svg" viewBox="0 0 340 270"><defs><style>.cls-1{fill:#e3a037;}.cls-2{fill:#f8ae3c;}.cls-3{fill:#b1aba9;}</style></defs><path class="cls-1" d="M94,48.06c.06,4.38-20.82,8.18-46.62,8.49S.62,53.55.57,49.17,21.39,41,47.19,40.68,94,43.67,94,48.06Z"/><path class="cls-2" d="M55.82,32.45a18.83,18.83,0,0,0-8.53-3,18.8,18.8,0,0,0-8.53,3,17.09,17.09,0,0,1-8.13,2.89H63.94A17.07,17.07,0,0,1,55.82,32.45Z"/><path class="cls-2" d="M94,41.35c.06,4.38-20.82,8.19-46.62,8.5S.62,46.85.57,42.47,21.39,34.28,47.19,34,94,37,94,41.35Z"/><path class="cls-3" d="M46,30.51V8.22a1.48,1.48,0,0,1,2.58,0V30.51a1.35,1.35,0,0,1-1.29.67A1.34,1.34,0,0,1,46,30.51Z"/></svg>