<svg id="Layer_1" data-name="Layer 1" xmlns="http://www.w3.org/2000/svg" viewBox="0 0 90.04 29.62"><defs><style>.cls-1{fill:#e19f37;}.cls-2{fill:#f8ae3c;}.cls-3{fill:#805d28;}</style></defs><path class="cls-1" d="M275.17,6.7a18.87,18.87,0,0,0-9-.68,18.9,18.9,0,0,0-7.46,5.12,17.11,17.11,0,0,1-7.09,4.9l16.08-4.33,16.08-4.33A17.07,17.07,0,0,1,275.17,6.7Z" transform="translate(-224.38 -3.24)"/><path class="cls-2" d="M314.36,5.37c1.19,4.22-18,13.32-42.81,20.32s-45.93,9.27-47.12,5,18-13.32,42.81-20.32S313.17,1.15,314.36,5.37Z" transform="translate(-224.38 -3.24)"/><path class="cls-1" d="M304.41,8.61c.8,2.83-14.18,9.53-33.46,15s-35.54,7.55-36.35,4.72,14.18-9.53,33.46-15S303.61,5.78,304.41,8.61Z" transform="translate(-224.38 -3.24)"/><path class="cls-3" d="M286.52,13.65c.48,1.69-6.75,5.2-16.15,7.86s-17.4,3.43-17.88,1.75,6.76-5.21,16.15-7.86S286.05,12,286.52,13.65Z" transform="translate(-224.38 -3.24)"/></svg>