<svg id="Layer_1" data-name="Layer 1" xmlns="http://www.w3.org/2000/svg" viewBox="0 0 92.05 90.85"><defs><style>.cls-1{fill:#b1aba9;}.cls-2{fill:#cdc6c3;}.cls-3,.cls-4{fill:none;stroke-linecap:round;stroke-linejoin:bevel;}.cls-3{stroke:#b1aba9;stroke-width:5.49px;}.cls-4{stroke:#cdc6c3;stroke-width:10.98px;}.cls-5{fill:#43403e;}</style></defs><path class="cls-1" d="M240.12,231.92V174.58s.63-2,3.41-2a3.32,3.32,0,0,1,3.4,2v57.34Z" transform="translate(-197.5 -172.61)"/><rect class="cls-2" x="39.68" y="24.77" width="12.69" height="13.53"/><polyline class="cls-3" points="60.37 70.02 46.02 85.36 31.68 70.02"/><line class="cls-4" x1="46.02" y1="63.05" x2="46.02" y2="85.35"/><path class="cls-2" d="M287.45,257.57a1,1,0,0,0-.47-.63l-39.39-22.69v-9.42h-8.13v9.42l-39.39,22.69a1,1,0,0,0-.47.63,1,1,0,0,0,.14.77l1.09,1.64a1.06,1.06,0,0,0,.39.34,1,1,0,0,0,.91,0l39.42-22.64h3.95l39.42,22.64a1,1,0,0,0,1.3-.3l1.09-1.64A1,1,0,0,0,287.45,257.57Z" transform="translate(-197.5 -172.61)"/><path class="cls-5" d="M200,256.79l-1.71.92-.08.05a1.58,1.58,0,0,0-.68,1,1.56,1.56,0,0,0,.24,1.19l.6.91a1.76,1.76,0,0,0,.63.55,1.61,1.61,0,0,0,1.52-.08l1.68-.9Z" transform="translate(-197.5 -172.61)"/><path class="cls-5" d="M287.05,256.79l1.71.92.08.05a1.58,1.58,0,0,1,.44,2.2l-.6.91a1.76,1.76,0,0,1-.63.55,1.63,1.63,0,0,1-1.53-.08l-1.68-.9Z" transform="translate(-197.5 -172.61)"/></svg>