<svg id="Layer_1" data-name="Layer 1" xmlns="http://www.w3.org/2000/svg" viewBox="0 0 340 270"><defs><style>.cls-1{fill:#b1aba9;}.cls-2,.cls-3{fill:none;stroke-linecap:round;stroke-linejoin:bevel;}.cls-2{stroke:#b1aba9;stroke-width:5.49px;}.cls-3{stroke:#cdc6c3;stroke-width:10.98px;}.cls-4{fill:#cdc6c3;}.cls-5{fill:#43403e;}</style></defs><path class="cls-1" d="M290.57,231.92V58.55a3.93,3.93,0,0,1,6.82,0V231.92Z"/><polyline class="cls-2" points="308.32 242.62 293.98 257.96 279.63 242.62"/><line class="cls-3" x1="293.98" y1="235.66" x2="293.98" y2="257.96"/><path class="cls-4" d="M337.9,257.57a1,1,0,0,0-.47-.63L298,234.25v-9.42h-8.12v9.42l-39.4,22.69a1.07,1.07,0,0,0-.47.63,1,1,0,0,0,.14.77l1.09,1.64a1.06,1.06,0,0,0,.39.34,1,1,0,0,0,.91,0L292,237.64H296l39.42,22.64a1,1,0,0,0,1.3-.3l1.09-1.64A1,1,0,0,0,337.9,257.57Z"/><path class="cls-5" d="M250.45,256.79l-1.71.92-.08.05a1.62,1.62,0,0,0-.68,1,1.61,1.61,0,0,0,.24,1.19l.6.91a1.76,1.76,0,0,0,.63.55,1.61,1.61,0,0,0,1.52-.08l1.68-.9Z"/><path class="cls-5" d="M337.5,256.79l1.71.92.08.05a1.58,1.58,0,0,1,.44,2.2l-.6.91a1.68,1.68,0,0,1-.63.55,1.61,1.61,0,0,1-1.52-.08l-1.68-.9Z"/><rect class="cls-4" x="287.63" y="135.82" width="12.69" height="13.53"/><path class="cls-1" d="M291,60.18,266.28,20.81a3.32,3.32,0,0,1,1.84-3.48,3.33,3.33,0,0,1,3.94-.13l24.7,39.37Z"/><path class="cls-1" d="M299.48,58.82a5.5,5.5,0,1,1-5.5-5.5A5.5,5.5,0,0,1,299.48,58.82Z"/><path class="cls-5" d="M297.16,58.82A3.19,3.19,0,1,1,294,55.63,3.18,3.18,0,0,1,297.16,58.82Z"/></svg>