<svg id="Layer_1" data-name="Layer 1" xmlns="http://www.w3.org/2000/svg" viewBox="0 0 92.05 224.77"><defs><style>.cls-1{fill:#b1aba9;}.cls-2,.cls-3{fill:none;stroke-linecap:round;stroke-linejoin:bevel;}.cls-2{stroke:#b1aba9;stroke-width:5.49px;}.cls-3{stroke:#cdc6c3;stroke-width:10.98px;}.cls-4{fill:#cdc6c3;}.cls-5{fill:#43403e;}</style></defs><path class="cls-1" d="M43.88,231.92V40.66a3.32,3.32,0,0,1,3.41-2,3.32,3.32,0,0,1,3.4,2V231.92Z" transform="translate(-1.26 -38.68)"/><polyline class="cls-2" points="60.37 203.94 46.02 219.28 31.68 203.94"/><line class="cls-3" x1="46.02" y1="196.98" x2="46.02" y2="219.28"/><path class="cls-4" d="M91.21,257.57a1,1,0,0,0-.47-.63L51.35,234.25v-9.42H43.23v9.42L3.83,256.94a1.07,1.07,0,0,0-.47.63,1,1,0,0,0,.14.77L4.59,260a1.06,1.06,0,0,0,.39.34,1,1,0,0,0,.91,0l39.42-22.64h4l39.41,22.64a1,1,0,0,0,.91,0A1.06,1.06,0,0,0,90,260l1.09-1.64A1,1,0,0,0,91.21,257.57Z" transform="translate(-1.26 -38.68)"/><path class="cls-5" d="M3.76,256.79l-1.71.92-.08.05a1.62,1.62,0,0,0-.68,1A1.56,1.56,0,0,0,1.53,260l.6.91a1.76,1.76,0,0,0,.63.55,1.63,1.63,0,0,0,1.53-.08l1.68-.9Z" transform="translate(-1.26 -38.68)"/><path class="cls-5" d="M90.81,256.79l1.71.92.08.05a1.55,1.55,0,0,1,.68,1A1.52,1.52,0,0,1,93,260l-.6.91a1.68,1.68,0,0,1-.63.55,1.61,1.61,0,0,1-1.52-.08l-1.68-.9Z" transform="translate(-1.26 -38.68)"/><rect class="cls-4" x="39.68" y="97.14" width="12.69" height="13.53"/></svg>