<svg id="Layer_1" data-name="Layer 1" xmlns="http://www.w3.org/2000/svg" viewBox="0 0 92.05 59.52"><defs><style>.cls-1{fill:#b1aba9;}.cls-2,.cls-3{fill:none;stroke-linecap:round;stroke-linejoin:bevel;}.cls-2{stroke:#b1aba9;stroke-width:5.49px;}.cls-3{stroke:#cdc6c3;stroke-width:10.98px;}.cls-4{fill:#cdc6c3;}.cls-5{fill:#43403e;}</style></defs><path class="cls-1" d="M96.14,231.92v-26a3.92,3.92,0,0,1,6.81,0v26Z" transform="translate(-53.52 -203.93)"/><polyline class="cls-2" points="60.37 38.69 46.02 54.03 31.68 38.69"/><line class="cls-3" x1="46.02" y1="31.73" x2="46.02" y2="54.03"/><path class="cls-4" d="M143.47,257.57a1,1,0,0,0-.47-.63l-39.39-22.69v-9.42H95.49v9.42l-39.4,22.69a1,1,0,0,0-.47.63,1,1,0,0,0,.14.77L56.85,260a1.06,1.06,0,0,0,.39.34,1,1,0,0,0,.91,0l39.42-22.64h4l39.42,22.64a1,1,0,0,0,1.3-.3l1.09-1.64A1,1,0,0,0,143.47,257.57Z" transform="translate(-53.52 -203.93)"/><path class="cls-5" d="M56,256.79l-1.71.92-.08.05a1.62,1.62,0,0,0-.68,1,1.56,1.56,0,0,0,.24,1.19l.6.91a1.76,1.76,0,0,0,.63.55,1.61,1.61,0,0,0,1.52-.08l1.69-.9Z" transform="translate(-53.52 -203.93)"/><path class="cls-5" d="M143.07,256.79l1.71.92.08.05a1.58,1.58,0,0,1,.44,2.2l-.6.91a1.68,1.68,0,0,1-.63.55,1.61,1.61,0,0,1-1.52-.08l-1.68-.9Z" transform="translate(-53.52 -203.93)"/></svg>