<svg id="Layer_1" data-name="Layer 1" xmlns="http://www.w3.org/2000/svg" viewBox="0 0 340 270"><defs><style>.cls-1{fill:#a09a98;}.cls-2{fill:#cdc6c3;}.cls-3{fill:#b7b1ae;}.cls-4{fill:#b1aba9;}</style></defs><path class="cls-1" d="M163.44,109.76V98.32a1.61,1.61,0,0,0-2.79,0v11.44Z"/><path class="cls-1" d="M165.45,138.85v-15.7h-6.82v18.19a5.17,5.17,0,0,0-.07.91,3.34,3.34,0,0,0,2,3.42h10.85v-6.82Z"/><rect class="cls-2" x="156.83" y="113.41" width="10.42" height="10.53"/><rect class="cls-3" x="157.61" y="109.76" width="8.87" height="3.66"/><path class="cls-1" d="M192,109.76V98.32a1.61,1.61,0,0,1,2.79,0v11.44Z"/><path class="cls-1" d="M190,138.85v-15.7h6.82v18.19a5.14,5.14,0,0,1,.08.91,3.34,3.34,0,0,1-2,3.42H184.06v-6.82Z"/><rect class="cls-2" x="188.19" y="113.41" width="10.42" height="10.53"/><rect class="cls-3" x="188.97" y="109.76" width="8.87" height="3.66"/><rect class="cls-4" x="174.31" y="149.35" width="6.82" height="26.67"/><rect class="cls-2" x="171.38" y="135.82" width="12.69" height="13.53"/></svg>