<svg id="Layer_1" data-name="Layer 1" xmlns="http://www.w3.org/2000/svg" viewBox="0 0 41.78 78.51"><defs><style>.cls-1{fill:#a09a98;}.cls-2{fill:#cdc6c3;}.cls-3{fill:#b7b1ae;}.cls-4{fill:#b1aba9;}</style></defs><path class="cls-1" d="M163.44,109.76V98.32a1.61,1.61,0,0,0-2.79,0v11.44Z" transform="translate(-156.83 -97.51)"/><path class="cls-1" d="M165.45,138.85v-15.7h-6.82v18.19a5.17,5.17,0,0,0-.07.91,3.34,3.34,0,0,0,2,3.42h10.85v-6.82Z" transform="translate(-156.83 -97.51)"/><rect class="cls-2" y="15.9" width="10.42" height="10.53"/><rect class="cls-3" x="0.77" y="12.24" width="8.87" height="3.66"/><path class="cls-1" d="M192,109.76V98.32a1.61,1.61,0,0,1,2.79,0v11.44Z" transform="translate(-156.83 -97.51)"/><path class="cls-1" d="M190,138.85v-15.7h6.82v18.19a5.14,5.14,0,0,1,.08.91,3.34,3.34,0,0,1-2,3.42H184.06v-6.82Z" transform="translate(-156.83 -97.51)"/><rect class="cls-2" x="31.36" y="15.9" width="10.42" height="10.53"/><rect class="cls-3" x="32.13" y="12.24" width="8.87" height="3.66"/><rect class="cls-4" x="17.48" y="51.84" width="6.82" height="26.67"/><rect class="cls-2" x="14.54" y="38.31" width="12.69" height="13.53"/></svg>