<svg id="Layer_1" data-name="Layer 1" xmlns="http://www.w3.org/2000/svg" viewBox="0 0 66.4 67.58"><defs><style>.cls-1{fill:#2c2227;}.cls-2{fill:#805d28;}.cls-3{fill:#f8ae3c;}.cls-4{fill:#dcd4d0;}</style></defs><path class="cls-1" d="M132.75,155.46c0,5.92-14.87,10.72-33.2,10.72s-33.21-4.8-33.21-10.72,14.87-10.71,33.21-10.71S132.75,149.55,132.75,155.46Z" transform="translate(-66.34 -144.75)"/><path class="cls-2" d="M129.24,205.06c0,4-13.29,7.27-29.69,7.27s-29.7-3.26-29.7-7.27,13.29-7.27,29.7-7.27S129.24,201.05,129.24,205.06Z" transform="translate(-66.34 -144.75)"/><path class="cls-3" d="M99.55,148.61c-16.41,0-29.7,3.25-29.7,7.27v48.84h0c.73-3.86,13.73-6.93,29.67-6.93s28.93,3.07,29.66,6.93h0V155.88C129.24,151.86,116,148.61,99.55,148.61Z" transform="translate(-66.34 -144.75)"/><path class="cls-4" d="M100.91,155.19a1.37,1.37,0,0,1-1.36,1.37h0a1.37,1.37,0,0,1-1.37-1.37v-7.36a1.36,1.36,0,0,1,1.37-1.36h0a1.36,1.36,0,0,1,1.36,1.36Z" transform="translate(-66.34 -144.75)"/><path class="cls-4" d="M83.82,156.69a1.37,1.37,0,0,1-1.37,1.37h0a1.37,1.37,0,0,1-1.37-1.37v-7.35A1.37,1.37,0,0,1,82.45,148h0a1.37,1.37,0,0,1,1.37,1.37Z" transform="translate(-66.34 -144.75)"/><path class="cls-4" d="M118,156.69a1.37,1.37,0,0,1-1.37,1.37h0a1.36,1.36,0,0,1-1.36-1.37v-7.35a1.36,1.36,0,0,1,1.36-1.37h0a1.37,1.37,0,0,1,1.37,1.37Z" transform="translate(-66.34 -144.75)"/><path class="cls-4" d="M71.21,161.64A1.36,1.36,0,0,1,69.85,163h0a1.37,1.37,0,0,1-1.37-1.37v-7.35a1.37,1.37,0,0,1,1.37-1.37h0a1.36,1.36,0,0,1,1.36,1.37Z" transform="translate(-66.34 -144.75)"/><path class="cls-4" d="M130.61,161.64a1.37,1.37,0,0,1-1.37,1.37h0a1.36,1.36,0,0,1-1.36-1.37v-7.35a1.36,1.36,0,0,1,1.36-1.37h0a1.37,1.37,0,0,1,1.37,1.37Z" transform="translate(-66.34 -144.75)"/><path class="cls-4" d="M100.91,200a1.37,1.37,0,0,1-1.36,1.37h0A1.37,1.37,0,0,1,98.18,200v-7.36a1.36,1.36,0,0,1,1.37-1.36h0a1.36,1.36,0,0,1,1.36,1.36Z" transform="translate(-66.34 -144.75)"/><path class="cls-4" d="M83.82,201.54a1.37,1.37,0,0,1-1.37,1.37h0a1.37,1.37,0,0,1-1.37-1.37v-7.35a1.37,1.37,0,0,1,1.37-1.37h0a1.37,1.37,0,0,1,1.37,1.37Z" transform="translate(-66.34 -144.75)"/><path class="cls-4" d="M118,201.54a1.37,1.37,0,0,1-1.37,1.37h0a1.36,1.36,0,0,1-1.36-1.37v-7.35a1.36,1.36,0,0,1,1.36-1.37h0a1.37,1.37,0,0,1,1.37,1.37Z" transform="translate(-66.34 -144.75)"/><path class="cls-4" d="M71.21,206.49a1.36,1.36,0,0,1-1.36,1.37h0a1.37,1.37,0,0,1-1.37-1.37v-7.35a1.37,1.37,0,0,1,1.37-1.37h0a1.36,1.36,0,0,1,1.36,1.37Z" transform="translate(-66.34 -144.75)"/><path class="cls-4" d="M130.61,206.49a1.37,1.37,0,0,1-1.37,1.37h0a1.36,1.36,0,0,1-1.36-1.37v-7.35a1.36,1.36,0,0,1,1.36-1.37h0a1.37,1.37,0,0,1,1.37,1.37Z" transform="translate(-66.34 -144.75)"/></svg>