<svg id="Layer_1" data-name="Layer 1" xmlns="http://www.w3.org/2000/svg" viewBox="0 0 71.08 55.15"><defs><style>.cls-1{fill:#2c2227;}.cls-2{fill:#cd7430;}.cls-3{fill:#e59337;}.cls-4{fill:#dcd4d0;}</style></defs><path class="cls-1" d="M174.4,99.37c-1.62,5.69-17.23,6.24-34.87,1.23s-30.63-13.68-29-19.37S127.75,75,145.39,80,176,93.67,174.4,99.37Z" transform="translate(-103.45 -76.56)"/><path class="cls-2" d="M162.35,129c-1.1,3.86-14.78,3.36-30.56-1.13s-27.67-11.24-26.58-15.1,14.78-3.36,30.56,1.12S163.45,125.1,162.35,129Z" transform="translate(-103.45 -76.56)"/><path class="cls-3" d="M144.33,83.7c-15.78-4.48-29.46-5-30.55-1.12l-8.48,29.83h0c1.75-3.51,15.1-2.91,30.43,1.44s27,10.86,26.64,14.77h0l8.47-29.83C172,94.94,160.11,88.18,144.33,83.7Z" transform="translate(-103.45 -76.56)"/><path class="cls-4" d="M143.85,90.41a1.38,1.38,0,0,1-1.69.94h0a1.36,1.36,0,0,1-.94-1.69l2-7.08a1.37,1.37,0,0,1,1.69-.94h0a1.38,1.38,0,0,1,.94,1.69Z" transform="translate(-103.45 -76.56)"/><path class="cls-4" d="M127,87.18a1.36,1.36,0,0,1-1.69.94h0a1.37,1.37,0,0,1-.94-1.68l2-7.08a1.36,1.36,0,0,1,1.69-.94h0A1.36,1.36,0,0,1,129,80.1Z" transform="translate(-103.45 -76.56)"/><path class="cls-4" d="M159.88,96.52a1.36,1.36,0,0,1-1.69.94h0a1.37,1.37,0,0,1-.94-1.68l2-7.08a1.37,1.37,0,0,1,1.69-.94h0a1.35,1.35,0,0,1,.94,1.68Z" transform="translate(-103.45 -76.56)"/><path class="cls-4" d="M113.52,88.5a1.37,1.37,0,0,1-1.69.94h0a1.36,1.36,0,0,1-.94-1.69l2-7.07a1.37,1.37,0,0,1,1.69-1h0a1.37,1.37,0,0,1,.93,1.69Z" transform="translate(-103.45 -76.56)"/><path class="cls-4" d="M170.65,104.73a1.37,1.37,0,0,1-1.69.94h0A1.38,1.38,0,0,1,168,104l2-7.08a1.38,1.38,0,0,1,1.69-.94h0a1.37,1.37,0,0,1,.94,1.69Z" transform="translate(-103.45 -76.56)"/><path class="cls-4" d="M136.47,116.39a1.37,1.37,0,0,1-1.69.94h0a1.35,1.35,0,0,1-.94-1.68l2-7.08a1.36,1.36,0,0,1,1.69-.94h0a1.38,1.38,0,0,1,.94,1.69Z" transform="translate(-103.45 -76.56)"/><path class="cls-4" d="M119.61,113.17a1.37,1.37,0,0,1-1.69.94h0a1.37,1.37,0,0,1-.94-1.69l2-7.07a1.38,1.38,0,0,1,1.69-.95h0a1.38,1.38,0,0,1,.94,1.69Z" transform="translate(-103.45 -76.56)"/><path class="cls-4" d="M152.5,122.51a1.36,1.36,0,0,1-1.69.94h0a1.37,1.37,0,0,1-.94-1.69l2-7.07a1.37,1.37,0,0,1,1.69-.94h0a1.36,1.36,0,0,1,.94,1.68Z" transform="translate(-103.45 -76.56)"/><path class="cls-4" d="M106.13,114.49a1.35,1.35,0,0,1-1.68.94h0a1.36,1.36,0,0,1-.94-1.69l2-7.08a1.37,1.37,0,0,1,1.68-.94h0a1.36,1.36,0,0,1,.94,1.69Z" transform="translate(-103.45 -76.56)"/><path class="cls-4" d="M163.27,130.72a1.38,1.38,0,0,1-1.69.94h0a1.38,1.38,0,0,1-.94-1.69l2-7.08a1.38,1.38,0,0,1,1.69-.94h0a1.36,1.36,0,0,1,.94,1.69Z" transform="translate(-103.45 -76.56)"/></svg>