<svg id="Layer_1" data-name="Layer 1" xmlns="http://www.w3.org/2000/svg" viewBox="0 0 71.08 55.15"><defs><style>.cls-1{fill:#2c2227;}.cls-2{fill:#cd7430;}.cls-3{fill:#e59337;}.cls-4{fill:#dcd4d0;}</style></defs><path class="cls-1" d="M181.05,99.37c1.62,5.69,17.23,6.24,34.87,1.23s30.62-13.68,29-19.37S227.7,75,210.06,80,179.43,93.67,181.05,99.37Z" transform="translate(-180.91 -76.56)"/><path class="cls-2" d="M193.1,129c1.09,3.86,14.77,3.36,30.55-1.13s27.68-11.24,26.58-15.1-14.77-3.36-30.55,1.12S192,125.1,193.1,129Z" transform="translate(-180.91 -76.56)"/><path class="cls-3" d="M211.11,83.7c15.78-4.48,29.46-5,30.56-1.12l8.47,29.83h0c-1.76-3.51-15.1-2.91-30.43,1.44s-27,10.86-26.64,14.77h0l-8.47-29.83C183.43,94.94,195.33,88.18,211.11,83.7Z" transform="translate(-180.91 -76.56)"/><path class="cls-4" d="M211.6,90.41a1.37,1.37,0,0,0,1.68.94h0a1.38,1.38,0,0,0,.95-1.69l-2-7.08a1.37,1.37,0,0,0-1.69-.94h0a1.36,1.36,0,0,0-.94,1.69Z" transform="translate(-180.91 -76.56)"/><path class="cls-4" d="M228.45,87.18a1.37,1.37,0,0,0,1.69.94h0a1.36,1.36,0,0,0,.94-1.68l-2-7.08a1.35,1.35,0,0,0-1.68-.94h0a1.37,1.37,0,0,0-.95,1.68Z" transform="translate(-180.91 -76.56)"/><path class="cls-4" d="M195.56,96.52a1.36,1.36,0,0,0,1.69.94h0a1.35,1.35,0,0,0,.94-1.68l-2-7.08a1.36,1.36,0,0,0-1.69-.94h0a1.37,1.37,0,0,0-.94,1.68Z" transform="translate(-180.91 -76.56)"/><path class="cls-4" d="M241.93,88.5a1.36,1.36,0,0,0,1.69.94h0a1.37,1.37,0,0,0,.94-1.69l-2-7.07a1.38,1.38,0,0,0-1.69-1h0a1.37,1.37,0,0,0-.94,1.69Z" transform="translate(-180.91 -76.56)"/><path class="cls-4" d="M184.79,104.73a1.38,1.38,0,0,0,1.69.94h0a1.37,1.37,0,0,0,.94-1.69l-2-7.08a1.38,1.38,0,0,0-1.69-.94h0a1.38,1.38,0,0,0-.94,1.69Z" transform="translate(-180.91 -76.56)"/><path class="cls-4" d="M219,116.39a1.36,1.36,0,0,0,1.69.94h0a1.37,1.37,0,0,0,.94-1.68l-2-7.08a1.35,1.35,0,0,0-1.68-.94h0a1.36,1.36,0,0,0-.94,1.69Z" transform="translate(-180.91 -76.56)"/><path class="cls-4" d="M235.84,113.17a1.36,1.36,0,0,0,1.68.94h0a1.36,1.36,0,0,0,.94-1.69l-2-7.07a1.37,1.37,0,0,0-1.69-.95h0a1.37,1.37,0,0,0-.93,1.69Z" transform="translate(-180.91 -76.56)"/><path class="cls-4" d="M202.94,122.51a1.37,1.37,0,0,0,1.69.94h0a1.37,1.37,0,0,0,.94-1.69l-2-7.07a1.35,1.35,0,0,0-1.68-.94h0a1.37,1.37,0,0,0-.95,1.68Z" transform="translate(-180.91 -76.56)"/><path class="cls-4" d="M249.31,114.49a1.36,1.36,0,0,0,1.69.94h0a1.38,1.38,0,0,0,.94-1.69l-2-7.08a1.38,1.38,0,0,0-1.69-.94h0a1.37,1.37,0,0,0-.94,1.69Z" transform="translate(-180.91 -76.56)"/><path class="cls-4" d="M192.17,130.72a1.38,1.38,0,0,0,1.69.94h0a1.37,1.37,0,0,0,.94-1.69l-2-7.08a1.38,1.38,0,0,0-1.69-.94h0a1.36,1.36,0,0,0-.93,1.69Z" transform="translate(-180.91 -76.56)"/></svg>